<svg width="32" height="33" viewBox="0 0 32 33" fill="none" xmlns="http://www.w3.org/2000/svg">
<path d="M26.6666 29.8333H23.9999V27.1667C23.9999 26.1058 23.5785 25.0884 22.8283 24.3382C22.0782 23.5881 21.0608 23.1667 19.9999 23.1667H11.9999C10.9391 23.1667 9.92164 23.5881 9.17149 24.3382C8.42135 25.0884 7.99992 26.1058 7.99992 27.1667V29.8333H5.33325V27.1667C5.33325 25.3986 6.03563 23.7029 7.28587 22.4526C8.53612 21.2024 10.2318 20.5 11.9999 20.5H19.9999C21.768 20.5 23.4637 21.2024 24.714 22.4526C25.9642 23.7029 26.6666 25.3986 26.6666 27.1667V29.8333ZM15.9999 17.8333C14.9493 17.8333 13.9091 17.6264 12.9385 17.2244C11.9678 16.8223 11.0859 16.2331 10.3431 15.4902C9.60019 14.7473 9.01092 13.8654 8.60888 12.8948C8.20684 11.9242 7.99992 10.8839 7.99992 9.83334C7.99992 8.78277 8.20684 7.74248 8.60888 6.77188C9.01092 5.80127 9.60019 4.91936 10.3431 4.17649C11.0859 3.43362 11.9678 2.84434 12.9385 2.44231C13.9091 2.04027 14.9493 1.83334 15.9999 1.83334C18.1216 1.83334 20.1565 2.6762 21.6568 4.17649C23.1571 5.67678 23.9999 7.71161 23.9999 9.83334C23.9999 11.9551 23.1571 13.9899 21.6568 15.4902C20.1565 16.9905 18.1216 17.8333 15.9999 17.8333ZM15.9999 15.1667C17.4144 15.1667 18.771 14.6048 19.7712 13.6046C20.7713 12.6044 21.3333 11.2478 21.3333 9.83334C21.3333 8.41886 20.7713 7.0623 19.7712 6.06211C18.771 5.06191 17.4144 4.50001 15.9999 4.50001C14.5854 4.50001 13.2289 5.06191 12.2287 6.06211C11.2285 7.0623 10.6666 8.41886 10.6666 9.83334C10.6666 11.2478 11.2285 12.6044 12.2287 13.6046C13.2289 14.6048 14.5854 15.1667 15.9999 15.1667Z" fill="#FAFAFC"/>
</svg>
