<svg width="46" height="35" viewBox="0 0 46 35" fill="none" xmlns="http://www.w3.org/2000/svg">
<path d="M38.4516 2.87731C35.6051 1.57063 32.5549 0.608492 29.3639 0.0580815C29.3054 0.0472467 29.2468 0.0732651 29.2187 0.127439C28.8266 0.825204 28.3912 1.7375 28.0879 2.4526C24.6564 1.93902 21.2423 1.93902 17.8801 2.4526C17.5747 1.72016 17.1241 0.825204 16.7298 0.127439C16.6995 0.0754321 16.641 0.0494136 16.5847 0.0580815C13.3958 0.608492 10.3435 1.57063 7.49691 2.87731C7.47308 2.88815 7.45141 2.90548 7.43624 2.92932C1.6478 11.5799 0.0619978 20.0181 0.839712 28.3522C0.844044 28.3934 0.865712 28.4324 0.898207 28.4563C4.71745 31.2625 8.4176 32.9657 12.0484 34.0947C12.1069 34.1121 12.1675 34.0904 12.2043 34.0427C13.0622 32.8704 13.8291 31.633 14.4855 30.3307C14.5245 30.2548 14.4855 30.1638 14.4075 30.1335C13.1922 29.6719 12.0375 29.1107 10.924 28.4736C10.8352 28.4216 10.8287 28.2959 10.9089 28.2352C11.1428 28.0597 11.3768 27.8777 11.5999 27.6935C11.6411 27.6588 11.6974 27.6523 11.7451 27.674C19.0521 31.0111 26.9636 31.0111 34.184 27.674C34.2316 27.6501 34.2879 27.6588 34.3291 27.6913C34.5522 27.8755 34.7862 28.0597 35.0223 28.2352C35.1025 28.2959 35.0982 28.4216 35.0093 28.4736C33.898 29.1237 32.7412 29.6741 31.5237 30.1335C31.4435 30.1638 31.4089 30.2548 31.4479 30.3328C32.1194 31.633 32.8841 32.8682 33.7268 34.0427C33.7615 34.0926 33.8243 34.1142 33.8828 34.0969C37.5309 32.9679 41.231 31.2647 45.0503 28.4584C45.0828 28.4346 45.1044 28.3956 45.1088 28.3566C46.0403 18.7222 43.549 10.3534 38.508 2.93366C38.495 2.90982 38.4755 2.89032 38.4495 2.87948L38.4516 2.87731ZM15.573 23.2772C13.372 23.2772 11.5609 21.2576 11.5609 18.7764C11.5609 16.2952 13.3395 14.2756 15.573 14.2756C17.8064 14.2756 19.6218 16.3147 19.585 18.7764C19.585 21.2576 17.8064 23.2772 15.573 23.2772ZM30.4102 23.2772C28.2092 23.2772 26.3982 21.2576 26.3982 18.7764C26.3982 16.2952 28.1767 14.2756 30.4102 14.2756C32.6437 14.2756 34.4591 16.3147 34.4222 18.7764C34.4222 21.2576 32.6632 23.2772 30.4102 23.2772Z" fill="#E7E7E7"/>
</svg>
