<svg width="32" height="33" viewBox="0 0 32 33" fill="none" xmlns="http://www.w3.org/2000/svg">
<path d="M24.0414 22.656L29.7521 28.3653L27.8654 30.252L22.1561 24.5413C20.0317 26.2443 17.3894 27.1705 14.6667 27.1667C8.04275 27.1667 2.66675 21.7907 2.66675 15.1667C2.66675 8.54266 8.04275 3.16666 14.6667 3.16666C21.2907 3.16666 26.6667 8.54266 26.6667 15.1667C26.6706 17.8893 25.7444 20.5316 24.0414 22.656ZM21.3667 21.6667C23.0589 19.9265 24.0039 17.5939 24.0001 15.1667C24.0001 10.0093 19.8227 5.83332 14.6667 5.83332C9.50941 5.83332 5.33341 10.0093 5.33341 15.1667C5.33341 20.3227 9.50941 24.5 14.6667 24.5C17.094 24.5038 19.4266 23.5588 21.1667 21.8667L21.3667 21.6667Z" fill="#FAFAFC"/>
</svg>
