<svg width="38" height="37" viewBox="0 0 38 37" fill="none" xmlns="http://www.w3.org/2000/svg">
<path d="M28.3243 0H9.49572C4.29399 0 0.0622559 4.23298 0.0622559 9.43625V26.6667C0.0622559 31.8699 4.29399 36.1029 9.49572 36.1029H28.3243C33.526 36.1029 37.7578 31.8699 37.7578 26.6667V9.43625C37.7578 4.23298 33.526 0 28.3243 0ZM3.39009 9.43625C3.39009 6.06905 6.12952 3.32878 9.49572 3.32878H28.3243C31.6905 3.32878 34.4299 6.06905 34.4299 9.43625V26.6667C34.4299 30.0339 31.6905 32.7742 28.3243 32.7742H9.49572C6.12952 32.7742 3.39009 30.0339 3.39009 26.6667V9.43625Z" fill="#E7E7E7"/>
<path d="M18.9102 26.8261C23.7474 26.8261 27.685 22.8895 27.685 18.0488C27.685 13.208 23.7495 9.27148 18.9102 9.27148C14.0709 9.27148 10.1355 13.208 10.1355 18.0488C10.1355 22.8895 14.0709 26.8261 18.9102 26.8261ZM18.9102 12.6024C21.914 12.6024 24.3571 15.0462 24.3571 18.0509C24.3571 21.0556 21.914 23.4994 18.9102 23.4994C15.9064 23.4994 13.4633 21.0556 13.4633 18.0509C13.4633 15.0462 15.9064 12.6024 18.9102 12.6024Z" fill="#E7E7E7"/>
<path d="M28.497 10.6903C29.7996 10.6903 30.8613 9.63048 30.8613 8.32539C30.8613 7.02031 29.8017 5.96045 28.497 5.96045C27.1923 5.96045 26.1328 7.02031 26.1328 8.32539C26.1328 9.63048 27.1923 10.6903 28.497 10.6903Z" fill="#E7E7E7"/>
</svg>
