<svg width="50" height="35" viewBox="0 0 50 35" fill="none" xmlns="http://www.w3.org/2000/svg">
<path d="M49.2384 9.14202C48.9381 6.24225 48.2918 3.03667 45.9131 1.35207C44.0708 0.0457032 41.6492 -0.00259211 39.3886 9.03749e-05C34.6098 0.00277286 29.8283 0.00814831 25.0495 0.0108308C20.4531 0.0161958 15.8567 0.0188913 11.2603 0.0242563C9.34016 0.0269388 7.47369 -0.123267 5.69036 0.708303C4.15912 1.42184 2.9604 2.77914 2.23902 4.28938C1.23875 6.38977 1.02959 8.76916 0.908913 11.0922C0.686333 15.3225 0.710468 19.5635 0.975956 23.7911C1.17172 26.876 1.66783 30.2853 4.05185 32.2516C6.16503 33.9925 9.14707 34.0784 11.8878 34.0811C20.5872 34.0891 29.2893 34.0972 37.9914 34.1026C39.107 34.1052 40.2708 34.0838 41.4079 33.9604C43.6444 33.719 45.7763 33.0778 47.2137 31.4201C48.6645 29.7489 49.0373 27.4231 49.2572 25.2208C49.7935 19.8773 49.7882 14.4828 49.2384 9.14202ZM20.0187 24.5421V9.5605L32.9874 17.05L20.0187 24.5421Z" fill="#E7E7E7"/>
</svg>
